<svg id="visual" viewBox="0 0 900 600" width="900" height="600" xmlns="http://www.w3.org/2000/svg" xmlns:xlink="http://www.w3.org/1999/xlink" version="1.1"><path d="M0 364L21.5 354.5C43 345 86 326 128.8 295.7C171.7 265.3 214.3 223.7 257.2 211.8C300 200 343 218 385.8 243.8C428.7 269.7 471.3 303.3 514.2 326.8C557 350.3 600 363.7 642.8 345.8C685.7 328 728.3 279 771.2 283C814 287 857 344 878.5 372.5L900 401L900 0L878.5 0C857 0 814 0 771.2 0C728.3 0 685.7 0 642.8 0C600 0 557 0 514.2 0C471.3 0 428.7 0 385.8 0C343 0 300 0 257.2 0C214.3 0 171.7 0 128.8 0C86 0 43 0 21.5 0L0 0Z" fill="#9F42E9" stroke-linecap="round" stroke-linejoin="miter"></path></svg>