<svg id="visual"
 viewBox="0 0 700 600" 
 width="700" 
 height="600" 
 xmlns="http://www.w3.org/2000/svg" 
 xmlns:xlink="http://www.w3.org/1999/xlink" 
 version="1.1">
    
 
 <path 
    d="M339 0L344 12.5C349 25 359 50 364.2 75C369.3 100 369.7 125 362.8 150C356 175 342 200 337.3 225C332.7 250 337.3 275 345.5 300C353.7 325 365.3 350 368.3 375C371.3 400 365.7 425 356.8 450C348 475 336 500 330.2 525C324.3 550 324.7 575 324.8 587.5L325 600L0 600L0 587.5C0 575 0 550 0 525C0 500 0 475 0 450C0 425 0 400 0 375C0 350 0 325 0 300C0 275 0 250 0 225C0 200 0 175 0 150C0 125 0 100 0 75C0 50 0 25 0 12.5L0 0Z" 
    fill="#9F42E9" 
    stroke-linecap="round" 
    stroke-linejoin="miter"
    
    >
</path>

</svg>
